STARTFONT 2.1
FONT matty.letterlike.9
SIZE 18 72 72
FONTBOUNDINGBOX 18 18 0 -5
STARTPROPERTIES 4
FONT_DESCENT 5
FONT_ASCENT 13
DEFAULT_CHAR 0
COPYRIGHT "Copyright (c) 1993 James Matthew Farrow - All rights reserved."
ENDPROPERTIES
CHARS 57
STARTCHAR ch-0
ENCODING 0
SWIDTH 722 0
DWIDTH 13 0
BBX 13 18 0 -5
BITMAP
000000
000000
7cc000
d8c000
d98000
d98000
6f0000
030000
060000
06e000
0db000
0d8000
19b000
18e000
000000
000000
000000
000000
ENDCHAR
STARTCHAR ch-1
ENCODING 1
SWIDTH 722 0
DWIDTH 13 0
BBX 13 18 0 -5
BITMAP
000000
000000
7cc000
d8c000
d98000
d98000
6f0000
030000
060000
06f000
0d8000
0ce000
183000
19e000
000000
000000
000000
000000
ENDCHAR
STARTCHAR ch-2
ENCODING 2
SWIDTH 500 0
DWIDTH 9 0
BBX 9 18 0 -5
BITMAP
000000
000000
000000
3f0000
530000
a10000
a00000
a00000
a00000
a00000
a00000
510000
3e0000
000000
000000
000000
000000
000000
ENDCHAR
STARTCHAR ch-3
ENCODING 3
SWIDTH 666 0
DWIDTH 12 0
BBX 12 18 0 -5
BITMAP
000000
000000
600000
93e000
966000
642000
0c0000
0c0000
0c0000
0c0000
040000
062000
03c000
000000
000000
000000
000000
000000
ENDCHAR
STARTCHAR ch-4
ENCODING 4
SWIDTH 555 0
DWIDTH 10 0
BBX 10 18 0 -5
BITMAP
000000
000000
3c0000
180000
7e0000
db0000
d80000
d80000
d80000
db0000
7e0000
180000
188000
3f8000
000000
000000
000000
000000
ENDCHAR
STARTCHAR ch-5
ENCODING 5
SWIDTH 722 0
DWIDTH 13 0
BBX 13 18 0 -5
BITMAP
000000
000000
70c000
d8c000
c18000
d98000
730000
030000
060000
06e000
0db000
0db000
19b000
18e000
000000
000000
000000
000000
ENDCHAR
STARTCHAR ch-6
ENCODING 6
SWIDTH 722 0
DWIDTH 13 0
BBX 13 18 0 -5
BITMAP
000000
000000
70c000
d8c000
c18000
d98000
730000
030000
060000
07b000
0db000
0db000
19b000
18d800
000000
000000
000000
000000
ENDCHAR
STARTCHAR ch-7
ENCODING 7
SWIDTH 500 0
DWIDTH 9 0
BBX 9 18 0 -5
BITMAP
000000
000000
3d0000
670000
c30000
c10000
600000
780000
600000
c00000
c00000
c30000
660000
3c0000
000000
000000
000000
000000
ENDCHAR
STARTCHAR ch-8
ENCODING 8
SWIDTH 500 0
DWIDTH 9 0
BBX 9 18 0 -5
BITMAP
000000
000000
bc0000
e60000
c60000
930000
130000
1f0000
130000
130000
c30000
c60000
660000
3c0000
000000
000000
000000
000000
ENDCHAR
STARTCHAR ch-9
ENCODING 9
SWIDTH 833 0
DWIDTH 15 0
BBX 15 18 0 -5
BITMAP
000000
000000
600000
97fc00
918400
618000
019000
01f000
019000
018000
018000
018000
07e000
000000
000000
000000
000000
000000
ENDCHAR
STARTCHAR ch-10
ENCODING 10
SWIDTH 666 0
DWIDTH 12 0
BBX 12 18 0 -5
BITMAP
000000
000000
000000
000000
000000
00e000
036000
06c000
0cc000
198000
39a000
5bc000
0f0000
0b0000
360000
460000
9c0000
700000
ENDCHAR
STARTCHAR ch-11
ENCODING 11
SWIDTH 888 0
DWIDTH 16 0
BBX 16 18 0 -5
BITMAP
000000
000000
0ccc00
1d9a00
079a00
033400
033800
0ff000
166000
0cc000
ccc800
d8d000
706000
000000
000000
000000
000000
000000
ENDCHAR
STARTCHAR ch-12
ENCODING 12
SWIDTH 777 0
DWIDTH 14 0
BBX 14 18 0 -5
BITMAP
000000
001800
383c00
6c6800
6c6000
2c6000
4c6000
0fe000
0c6000
0c6000
0c6000
6c6000
bc6800
183000
000000
000000
000000
000000
ENDCHAR
STARTCHAR ch-13
ENCODING 13
SWIDTH 611 0
DWIDTH 11 0
BBX 11 18 0 -5
BITMAP
000000
000000
000000
f9c000
508000
508000
508000
7f8000
508000
508000
508000
508000
f9c000
000000
000000
000000
000000
000000
ENDCHAR
STARTCHAR ch-14
ENCODING 14
SWIDTH 500 0
DWIDTH 9 0
BBX 9 18 0 -5
BITMAP
000000
000000
600000
600000
600000
6e0000
770000
630000
630000
630000
630000
630000
630000
000000
000000
000000
000000
000000
ENDCHAR
STARTCHAR ch-15
ENCODING 15
SWIDTH 500 0
DWIDTH 9 0
BBX 9 18 0 -5
BITMAP
000000
000000
6e0000
780000
e00000
6e0000
770000
630000
630000
630000
630000
630000
630000
000000
000000
000000
000000
000000
ENDCHAR
STARTCHAR ch-16
ENCODING 16
SWIDTH 666 0
DWIDTH 12 0
BBX 12 18 0 -5
BITMAP
000000
000000
000000
03e000
04c000
098000
098000
0b0000
068000
070000
cc0000
880000
700000
000000
000000
000000
000000
000000
ENDCHAR
STARTCHAR ch-17
ENCODING 17
SWIDTH 611 0
DWIDTH 11 0
BBX 11 18 0 -5
BITMAP
000000
000000
3c4000
778000
400000
270000
0c8000
0c0000
0e0000
060000
070000
630000
b70000
1e0000
000000
000000
000000
000000
ENDCHAR
STARTCHAR ch-18
ENCODING 18
SWIDTH 722 0
DWIDTH 13 0
BBX 13 18 0 -5
BITMAP
000000
000000
000000
046000
08d000
119000
119000
136000
0f8000
060000
6c2000
982000
efc000
000000
000000
000000
000000
000000
ENDCHAR
STARTCHAR ch-19
ENCODING 19
SWIDTH 555 0
DWIDTH 10 0
BBX 10 18 0 -5
BITMAP
000000
000000
030000
068000
068000
0d0000
0e0000
1c0000
180000
300000
720000
b40000
180000
000000
000000
000000
000000
000000
ENDCHAR
STARTCHAR ch-20
ENCODING 20
SWIDTH 722 0
DWIDTH 13 0
BBX 13 18 0 -5
BITMAP
000000
000000
f60000
7ff000
360000
36c000
376000
363000
363000
363000
363000
366000
37c000
000000
000000
000000
000000
000000
ENDCHAR
STARTCHAR ch-21
ENCODING 21
SWIDTH 555 0
DWIDTH 10 0
BBX 10 18 0 -5
BITMAP
000000
000000
000000
f38000
690000
690000
550000
550000
4b0000
4b0000
450000
450000
e30000
000000
000000
000000
000000
000000
ENDCHAR
STARTCHAR ch-22
ENCODING 22
SWIDTH 833 0
DWIDTH 15 0
BBX 15 18 0 -5
BITMAP
000000
000000
000000
e3b800
716c00
716c00
596c00
593800
4d0000
4d7c00
470000
470000
e30000
000000
000000
000000
000000
000000
ENDCHAR
STARTCHAR ch-23
ENCODING 23
SWIDTH 555 0
DWIDTH 10 0
BBX 10 18 0 -5
BITMAP
000000
000000
000000
3e0000
410000
bc8000
928000
928000
9c8000
908000
b88000
410000
3e0000
000000
000000
000000
000000
000000
ENDCHAR
STARTCHAR ch-24
ENCODING 24
SWIDTH 666 0
DWIDTH 12 0
BBX 12 18 0 -5
BITMAP
000000
000000
000000
000000
300000
63c000
cee000
d86000
f06000
626000
72c000
d98000
880000
880000
d80000
700000
000000
000000
ENDCHAR
STARTCHAR ch-25
ENCODING 25
SWIDTH 611 0
DWIDTH 11 0
BBX 11 18 0 -5
BITMAP
000000
000000
000000
ff8000
294000
294000
294000
298000
2e0000
280000
280000
280000
fe0000
000000
000000
000000
000000
000000
ENDCHAR
STARTCHAR ch-26
ENCODING 26
SWIDTH 500 0
DWIDTH 9 0
BBX 9 18 0 -5
BITMAP
000000
000000
000000
3c0000
520000
910000
910000
910000
910000
910000
9d0000
560000
3e8000
030000
000000
000000
000000
000000
ENDCHAR
STARTCHAR ch-27
ENCODING 27
SWIDTH 833 0
DWIDTH 15 0
BBX 15 18 0 -5
BITMAP
000000
000000
01f000
063800
086c00
106c00
12dc00
0df000
01b400
036400
866400
9c6800
703000
000000
000000
000000
000000
000000
ENDCHAR
STARTCHAR ch-28
ENCODING 28
SWIDTH 722 0
DWIDTH 13 0
BBX 13 18 0 -5
BITMAP
000000
000000
398000
6fc000
6cc000
2cc000
4c8000
0f0000
0d8000
0d8000
0cc000
6cd000
bc6000
180000
000000
000000
000000
000000
ENDCHAR
STARTCHAR ch-29
ENCODING 29
SWIDTH 722 0
DWIDTH 13 0
BBX 13 18 0 -5
BITMAP
000000
000000
000000
ff8000
294000
294000
298000
2e0000
298000
294000
294000
295000
fee000
000000
000000
000000
000000
000000
ENDCHAR
STARTCHAR ch-30
ENCODING 30
SWIDTH 666 0
DWIDTH 12 0
BBX 12 18 0 -5
BITMAP
000000
000000
000000
ff0000
318000
318000
318000
3e0000
336000
31c000
318000
33a000
fcc000
000000
000000
000000
000000
000000
ENDCHAR
STARTCHAR ch-31
ENCODING 31
SWIDTH 666 0
DWIDTH 12 0
BBX 12 18 0 -5
BITMAP
300000
0c0000
020000
ff0000
378000
358000
398000
3e0000
3b0000
318000
318000
31a000
fcc000
400000
800000
000000
000000
000000
ENDCHAR
STARTCHAR ch-32
ENCODING 32
SWIDTH 666 0
DWIDTH 12 0
BBX 12 18 0 -5
BITMAP
000000
7a2000
836000
82a000
72a000
0a2000
0a2000
f22000
000000
000000
000000
000000
000000
000000
000000
000000
000000
000000
ENDCHAR
STARTCHAR ch-33
ENCODING 33
SWIDTH 888 0
DWIDTH 16 0
BBX 16 18 0 -5
BITMAP
000000
fbd000
221000
221000
239000
221000
221000
23de00
000000
000000
000000
000000
000000
000000
000000
000000
000000
000000
ENDCHAR
STARTCHAR ch-34
ENCODING 34
SWIDTH 666 0
DWIDTH 12 0
BBX 12 18 0 -5
BITMAP
000000
fa2000
236000
22a000
222000
222000
222000
000000
000000
000000
000000
000000
000000
000000
000000
000000
000000
000000
ENDCHAR
STARTCHAR ch-35
ENCODING 35
SWIDTH 666 0
DWIDTH 12 0
BBX 12 18 0 -5
BITMAP
300000
0c0000
020000
fbe000
34c000
34c000
188000
188000
198000
1d0000
2d0000
260000
460000
400000
800000
000000
000000
000000
ENDCHAR
STARTCHAR ch-36
ENCODING 36
SWIDTH 666 0
DWIDTH 12 0
BBX 12 18 0 -5
BITMAP
000000
000000
000000
7f8000
428000
050000
0a0000
0a0000
140000
280000
280000
508000
7f8000
000000
000000
000000
000000
000000
ENDCHAR
STARTCHAR ch-37
ENCODING 37
SWIDTH 500 0
DWIDTH 9 0
BBX 9 18 0 -5
BITMAP
000000
3f0000
630000
060000
0c0000
3f0000
630000
060000
0c0000
160000
030000
030000
670000
3e0000
000000
000000
000000
000000
ENDCHAR
STARTCHAR ch-38
ENCODING 38
SWIDTH 555 0
DWIDTH 10 0
BBX 10 18 0 -5
BITMAP
000000
000000
000000
3e0000
630000
c18000
c18000
c18000
c18000
c18000
630000
220000
e38000
000000
000000
000000
000000
000000
ENDCHAR
STARTCHAR ch-39
ENCODING 39
SWIDTH 555 0
DWIDTH 10 0
BBX 10 18 0 -5
BITMAP
000000
000000
000000
e38000
220000
630000
c18000
c18000
c18000
c18000
c18000
630000
3e0000
000000
000000
000000
000000
000000
ENDCHAR
STARTCHAR ch-40
ENCODING 40
SWIDTH 555 0
DWIDTH 10 0
BBX 10 18 0 -5
BITMAP
000000
000000
1f0000
238000
018000
198000
1b0000
0f0000
018000
618000
f18000
338000
1f0000
000000
000000
000000
000000
000000
ENDCHAR
STARTCHAR ch-41
ENCODING 41
SWIDTH 500 0
DWIDTH 9 0
BBX 9 18 0 -5
BITMAP
000000
000000
000000
000000
000000
1c0000
260000
060000
060000
060000
060000
060000
060000
000000
000000
000000
000000
000000
ENDCHAR
STARTCHAR ch-42
ENCODING 42
SWIDTH 611 0
DWIDTH 11 0
BBX 11 18 0 -5
BITMAP
000000
000000
000000
f78000
620000
640000
680000
780000
6c0000
660000
660000
630000
f7c000
000000
000000
000000
000000
000000
ENDCHAR
STARTCHAR ch-43
ENCODING 43
SWIDTH 500 0
DWIDTH 9 0
BBX 9 18 0 -5
BITMAP
180000
240000
240000
180000
180000
2c0000
2c0000
660000
460000
fe0000
c30000
c30000
c30000
000000
000000
000000
000000
000000
ENDCHAR
STARTCHAR ch-44
ENCODING 44
SWIDTH 833 0
DWIDTH 15 0
BBX 15 18 0 -5
BITMAP
000000
000000
01f000
063800
086c00
116c00
12dc00
0df000
01b000
031800
463800
9ef000
73c000
000000
000000
000000
000000
000000
ENDCHAR
STARTCHAR ch-45
ENCODING 45
SWIDTH 611 0
DWIDTH 11 0
BBX 11 18 0 -5
BITMAP
000000
000000
1c0000
774000
6d8000
ce0000
c60000
d60000
cc0000
c00000
610000
720000
1c0000
000000
000000
000000
000000
000000
ENDCHAR
STARTCHAR ch-46
ENCODING 46
SWIDTH 666 0
DWIDTH 12 0
BBX 12 18 0 -5
BITMAP
000000
000000
000000
1f0000
71c000
e0e000
e0e000
ffe000
e00000
e00000
e06000
71c000
1f0000
000000
000000
000000
000000
000000
ENDCHAR
STARTCHAR ch-47
ENCODING 47
SWIDTH 555 0
DWIDTH 10 0
BBX 10 18 0 -5
BITMAP
000000
000000
000000
000000
000000
070000
198000
330000
660000
780000
c20000
cc0000
700000
000000
000000
000000
000000
000000
ENDCHAR
STARTCHAR ch-48
ENCODING 48
SWIDTH 666 0
DWIDTH 12 0
BBX 12 18 0 -5
BITMAP
000000
000000
000000
39e000
466000
49c000
3e0000
1e0000
700000
c60000
810000
c60000
780000
000000
000000
000000
000000
000000
ENDCHAR
STARTCHAR ch-49
ENCODING 49
SWIDTH 833 0
DWIDTH 15 0
BBX 15 18 0 -5
BITMAP
000000
000000
000000
078400
19f800
20c000
450000
4a6000
37c000
048000
080000
d00000
e00000
000000
000000
000000
000000
000000
ENDCHAR
STARTCHAR ch-50
ENCODING 50
SWIDTH 555 0
DWIDTH 10 0
BBX 10 18 0 -5
BITMAP
000000
000000
000000
1f8000
060000
060000
060000
260000
3e0000
260000
060000
860000
ff8000
000000
000000
000000
000000
000000
ENDCHAR
STARTCHAR ch-51
ENCODING 51
SWIDTH 1000 0
DWIDTH 18 0
BBX 18 18 0 -5
BITMAP
000000
000000
000000
000880
003300
007600
00ae00
015400
02a800
055300
09b100
d32200
e21c00
000000
000000
000000
000000
000000
ENDCHAR
STARTCHAR ch-52
ENCODING 52
SWIDTH 555 0
DWIDTH 10 0
BBX 10 18 0 -5
BITMAP
000000
000000
000000
000000
000000
070000
198000
318000
630000
630000
c60000
cc0000
700000
000000
000000
000000
000000
000000
ENDCHAR
STARTCHAR ch-53
ENCODING 53
SWIDTH 611 0
DWIDTH 11 0
BBX 11 18 0 -5
BITMAP
000000
000000
420000
c70000
e38000
73c000
3c8000
5c0000
ce0000
e70000
638000
618000
c10000
000000
000000
000000
000000
000000
ENDCHAR
STARTCHAR ch-54
ENCODING 54
SWIDTH 611 0
DWIDTH 11 0
BBX 11 18 0 -5
BITMAP
000000
000000
400000
7e0000
3f0000
030000
010000
010000
010000
010000
010000
7fc000
ff8000
000000
000000
000000
000000
000000
ENDCHAR
STARTCHAR ch-55
ENCODING 55
SWIDTH 611 0
DWIDTH 11 0
BBX 11 18 0 -5
BITMAP
000000
000000
100000
1e0000
0f0000
010000
010000
010000
010000
010000
028000
3c8000
784000
000000
000000
000000
000000
000000
ENDCHAR
STARTCHAR ch-56
ENCODING 56
SWIDTH 611 0
DWIDTH 11 0
BBX 11 18 0 -5
BITMAP
000000
000000
800000
ff8000
7fc000
010000
010000
010000
010000
010000
010000
010000
010000
000000
000000
000000
000000
000000
ENDCHAR
ENDFONT
